<svg width="36" height="36" viewBox="0 0 36 36" fill="none" xmlns="http://www.w3.org/2000/svg">
<rect width="36" height="36" rx="4" fill="white"/>
<mask id="mask0_442_4657" style="mask-type:alpha" maskUnits="userSpaceOnUse" x="8" y="8" width="20" height="20">
<circle cx="18" cy="18" r="10" fill="#D9D9D9"/>
</mask>
<g mask="url(#mask0_442_4657)">
<path d="M27.575 18.225C27.575 17.5667 27.5167 16.9417 27.4167 16.3333H18V20.0917H23.3917C23.15 21.325 22.4417 22.3667 21.3917 23.075V25.575H24.6083C26.4917 23.8333 27.575 21.2667 27.575 18.225Z" fill="#4285F4"/>
<path d="M18 28C20.7 28 22.9583 27.1 24.6083 25.575L21.3917 23.075C20.4917 23.675 19.35 24.0417 18 24.0417C15.3917 24.0417 13.1833 22.2833 12.3917 19.9083H9.07501V22.4833C10.7167 25.75 14.0917 28 18 28Z" fill="#34A853"/>
<path d="M12.3917 19.9083C12.1833 19.3083 12.075 18.6667 12.075 18C12.075 17.3333 12.1917 16.6917 12.3917 16.0917V13.5167H9.075C8.39167 14.8667 8 16.3833 8 18C8 19.6167 8.39167 21.1333 9.075 22.4833L12.3917 19.9083Z" fill="#FBBC05"/>
<path d="M18 11.9583C19.475 11.9583 20.7917 12.4667 21.8333 13.4583L24.6833 10.6083C22.9583 8.99167 20.7 8 18 8C14.0917 8 10.7167 10.25 9.07501 13.5167L12.3917 16.0917C13.1833 13.7167 15.3917 11.9583 18 11.9583Z" fill="#EA4335"/>
</g>
</svg>
