<svg width="16" height="20" viewBox="0 0 16 20" fill="none" xmlns="http://www.w3.org/2000/svg">
<path d="M11.0893 8.9226C11.4147 8.59716 11.4147 8.06952 11.0893 7.74409C10.7638 7.41865 10.2362 7.41865 9.91074 7.74409L7.16667 10.4882L6.08926 9.41076C5.76382 9.08532 5.23618 9.08532 4.91074 9.41076C4.58531 9.73619 4.58531 10.2638 4.91074 10.5893L6.57741 12.2559C6.90285 12.5814 7.43049 12.5814 7.75592 12.2559L11.0893 8.9226Z" fill="#6B818C"/>
<path fill-rule="evenodd" clip-rule="evenodd" d="M8.2926 0.886403C8.10395 0.815657 7.89605 0.815657 7.7074 0.886403L1.04073 3.3864C0.715477 3.50837 0.5 3.81931 0.5 4.16668V10C0.5 12.872 2.40146 15.1669 4.11791 16.6688C4.99365 17.4351 5.86545 18.034 6.51667 18.441C6.84314 18.6451 7.1164 18.8023 7.30995 18.9094C7.40677 18.963 7.48381 19.0042 7.53777 19.0325C7.56475 19.0467 7.58598 19.0576 7.60104 19.0654L7.61895 19.0745L7.62435 19.0772L7.62681 19.0784C7.86141 19.1957 8.13807 19.196 8.37268 19.0787L8 18.3333C8.37268 19.0787 8.37386 19.0781 8.37386 19.0781L8.37565 19.0772L8.38105 19.0745L8.39896 19.0654C8.41402 19.0576 8.43525 19.0467 8.46223 19.0325C8.51619 19.0042 8.59323 18.963 8.69005 18.9094C8.8836 18.8023 9.15686 18.6451 9.48333 18.441C10.1345 18.034 11.0064 17.4351 11.8821 16.6688C13.5985 15.1669 15.5 12.872 15.5 10V4.16668C15.5 3.81931 15.2845 3.50837 14.9593 3.3864L8.2926 0.886403ZM8 18.3333L7.62681 19.0784C7.62681 19.0784 7.62732 19.0787 8 18.3333ZM8.6 17.0277C8.36392 17.1753 8.1597 17.2951 8 17.3856C7.8403 17.2951 7.63608 17.1753 7.4 17.0277C6.80121 16.6535 6.00635 16.1066 5.21542 15.4145C3.59855 13.9998 2.16667 12.128 2.16667 10V4.74418L8 2.55668L13.8333 4.74418V10C13.8333 12.128 12.4015 13.9998 10.7846 15.4145C9.99365 16.1066 9.19878 16.6535 8.6 17.0277Z" fill="#6B818C"/>
</svg>
